<svg width="25" height="29" viewBox="0 0 25 29" fill="none" xmlns="http://www.w3.org/2000/svg">
<path d="M20.5753 26.9503C19.045 28.4001 17.3741 28.1712 15.7657 27.4845C14.0636 26.7825 12.502 26.7519 10.7063 27.4845C8.45762 28.4307 7.27084 28.156 5.9279 26.9503C-1.69248 19.2739 -0.568164 7.58382 8.08284 7.15651C10.1909 7.26334 11.6588 8.28584 12.8924 8.37741C14.7351 8.01114 16.4996 6.95811 18.4672 7.09546C20.8251 7.2786 22.6053 8.19427 23.7765 9.84249C18.9044 12.6963 20.06 18.9687 24.526 20.7237C23.6359 23.0129 22.4804 25.2869 20.5597 26.9656L20.5753 26.9503ZM12.7363 7.06494C12.502 3.66169 15.3285 0.853621 18.5765 0.578918C19.0293 4.51632 14.9225 7.44647 12.7363 7.06494Z" fill="white"/>
</svg>
